<svg xmlns="http://www.w3.org/2000/svg" xmlns:xlink="http://www.w3.org/1999/xlink" fill="none" version="1.1" width="21" height="21" viewBox="0 0 21 21"><defs><clipPath id="master_svg0_827_25367"><rect x="0" y="0" width="21" height="21" rx="0"/></clipPath></defs><g clip-path="url(#master_svg0_827_25367)"><g><path d="M11.73047125,6.28564578125L11.73047125,11.12548578125Q11.73047125,12.35595578125,10.50000125,12.35595578125Q9.26953125,12.35595578125,9.26953125,11.12548578125L9.26953125,6.28564578125Q9.26953125,5.05517578125,10.50000125,5.05517578125Q11.73047125,5.05517578125,11.73047125,6.28564578125Z" fill="#EA0000" fill-opacity="1"/></g><g><path d="M11.73047125,14.71435671875Q11.73047125,15.94481671875,10.50000125,15.94481671875Q9.26953125,15.94481671875,9.26953125,14.71435671875Q9.26953125,13.48388671875,10.50000125,13.48388671875Q11.73047125,13.48388671875,11.73047125,14.71435671875Z" fill="#EA0000" fill-opacity="1"/></g><g><path d="M10.4975,20.9896C5.5033,20.9867,1.20187,17.4674,0.210178,12.5726C-0.781515,7.6779,1.81085,2.7618,6.41007,0.815272C11.7473,-1.41584,17.8838,1.08902,20.1352,6.41771C22.3865,11.7464,19.905,17.8924,14.5849,20.164C13.2918,20.7114,11.9016,20.9922,10.4975,20.9896ZM10.4975,2.04041C6.47881,2.0433,3.01791,4.87555,2.22011,8.81423C1.42232,12.7529,3.50828,16.7087,7.20906,18.2752C11.5028,20.0636,16.4346,18.0465,18.2444,13.7617C20.0542,9.47693,18.0616,4.53513,13.7859,2.70404C12.7456,2.26384,11.6271,2.03813,10.4975,2.04041Z" fill="#EA0000" fill-opacity="1"/></g></g></svg>