<svg xmlns="http://www.w3.org/2000/svg" xmlns:xlink="http://www.w3.org/1999/xlink" fill="none" version="1.1" width="16" height="16" viewBox="0 0 16 16"><g><path d="M16,8.22051C15.8136,9.16033,15.5475,10.004,15.1962,10.7515C13.9987,13.2997,11.9521,14.6367,9.05657,14.76C7.68325,14.8168,6.38721,14.6293,5.16566,14.2L5.16566,14.1828L4.62544,15.5074C4.51678,15.7175,4.4279,15.7858,4.31015,15.8703C4.21726,15.937,4.05523,15.9831,3.94663,15.9949C3.83566,16.007,3.7553,15.999,3.60991,15.9547C3.49487,15.9198,3.44701,15.8637,3.4071,15.8341C3.36719,15.8045,3.27534,15.6955,3.25404,15.6733L0.524233,11.1585C0.455092,11.0352,0.41519,10.9168,0.401805,10.8008C0.388557,10.6873,0.396478,10.5911,0.420516,10.5122C0.444416,10.4333,0.484331,10.3592,0.542945,10.2902C0.596561,10.2281,0.655318,10.1711,0.718523,10.12C0.777114,10.0731,0.84094,10.0361,0.910185,10.0016C0.979325,9.967,1.02728,9.94726,1.04858,9.94231C1.0725,9.93738,1.08848,9.93001,1.10174,9.91769L5.88157,8.67935C6.13706,8.62261,6.3816,8.60384,6.53335,8.63347C6.68503,8.66309,6.71812,8.67287,6.81651,8.70985C6.91503,8.74934,7.02697,8.84654,7.07649,8.94325C7.12382,9.03569,7.14302,9.1209,7.15641,9.18994C7.16966,9.25906,7.16966,9.33797,7.15641,9.42675C7.14304,9.51554,7.13238,9.57721,7.12173,9.60442C7.10846,9.63395,7.10313,9.65126,7.10313,9.66357L6.54423,10.9883C7.53431,11.341,8.4657,11.5581,9.34394,11.642C10.2223,11.7259,10.97,11.7061,11.5848,11.5828C12.1997,11.4594,12.7744,11.2547,13.304,10.971C13.8337,10.6873,14.2515,10.4061,14.5603,10.1298C14.8689,9.85353,15.1457,9.54768,15.3879,9.2121C15.6327,8.87663,15.7844,8.64727,15.851,8.52394C15.9149,8.40303,15.9654,8.29942,16,8.22051ZM0,7.45129C0.255499,6.3412,0.614818,5.36682,1.08055,4.52809C2.41918,2.18464,4.54029,1.04007,7.44907,1.09681C8.73988,1.11899,9.91349,1.33857,10.9727,1.7603L11.5475,0.452983C11.6283,0.310585,11.712,0.212188,11.8024,0.138203C11.8956,0.0641462,11.9894,0.0360912,12.0692,0.018759C12.1517,0.00151114,12.239,-0.00634081,12.3243,0.00603418C12.412,0.0183368,12.452,0.0241263,12.5256,0.0497568C12.592,0.0728424,12.6062,0.076087,12.6701,0.113079C12.7339,0.152581,12.792,0.19851,12.8509,0.258818L12.958,0.391493L15.5422,4.88827C15.6008,5.0239,15.6353,5.14725,15.646,5.26322C15.6593,5.3767,15.6513,5.47292,15.6274,5.55184C15.6035,5.63074,15.5609,5.70481,15.4969,5.77142C15.4331,5.84044,15.3719,5.89477,15.3133,5.93175C15.2521,5.97364,15.1881,6.01073,15.1217,6.0427L14.9834,6.11181C14.9594,6.12411,14.9435,6.12906,14.9301,6.12906L10.1157,7.25147C9.78835,7.2983,9.52763,7.29096,9.33064,7.23422C9.13374,7.17748,8.99991,7.04108,8.94401,6.94484C8.88553,6.8487,8.86088,6.78551,8.85026,6.65034C8.84097,6.53211,8.84836,6.47791,8.86174,6.42117C8.87499,6.36443,8.90749,6.26721,8.93141,6.23265L9.5249,4.92522C8.54817,4.55276,7.6194,4.31344,6.73314,4.21236C5.84957,4.11119,5.10179,4.11119,4.49233,4.21236C3.88284,4.31344,3.30534,4.50095,2.76512,4.77234C2.22489,5.04362,1.79632,5.315,1.48233,5.58881C1.16825,5.86261,0.883529,6.16109,0.62803,6.48921C0.372532,6.8173,0.210235,7.04425,0.138362,7.1676C0.0718613,7.28845,0.0239231,7.38469,0,7.45129Z" fill="#787486" fill-opacity="1"/></g></svg>