<svg xmlns="http://www.w3.org/2000/svg" xmlns:xlink="http://www.w3.org/1999/xlink" fill="none" version="1.1" width="51.75390625" height="42" viewBox="0 0 51.75390625 42"><defs><clipPath id="master_svg0_823_14165"><rect x="15.025211334228516" y="8.884614944458008" width="23.107311248779297" height="23.423076629638672" rx="0"/></clipPath></defs><g><g><path d="M0 16C9.81054792658386e-16 7.163444002707305 7.1634440027073065 0 16 0L35.75430679321289 0C44.59086279050558 0 51.75430679321289 7.1634440027073065 51.75430679321289 16L51.75430679321289 26C51.75430679321289 34.83655599729269 44.59086279050558 42 35.75430679321289 42L16 42C7.1634440027073065 42 1.962109585316772e-15 34.8365559972927 0 26.000000000000004Z" fill="#304EE5" fill-opacity="1"/></g><g clip-path="url(#master_svg0_823_14165)"><g><path d="M19.462282146728516,10.258785160864258L37.23754414672852,20.16870426086426C37.391344146728514,20.25446426086426,37.48674414672851,20.418264260864255,37.48674414672851,20.596164260864256C37.48674414672851,20.774064260864257,37.391344146728514,20.93786426086426,37.23754414672852,21.02366426086426L19.462282146728516,30.93356426086426C19.141419146728516,31.112364260864258,18.748844146728516,30.87716426086426,18.748844146728516,30.506064260864257L18.748844146728516,10.686256260864258C18.748906814028516,10.315113260864258,19.141481146728516,10.079894260864258,19.462282146728516,10.258785160864258ZM20.674454146728515,21.572164260864255L20.674454146728515,28.030064260864258L34.00924414672852,20.596164260864256L20.674454146728515,13.162274260864258L20.674454146728515,19.620204260864256L25.488474146728514,19.620204260864256L25.488474146728514,21.572164260864255L20.674454146728515,21.572164260864255Z" fill="#FFFFFF" fill-opacity="1"/></g></g></g></svg>