<svg xmlns="http://www.w3.org/2000/svg" xmlns:xlink="http://www.w3.org/1999/xlink" fill="none" version="1.1" width="18" height="18" viewBox="0 0 18 18"><g><g><path d="M14.9355,18L3.06452,18C1.37458,18,0,16.6254,0,14.9355L0,3.06452C0,1.37458,1.37458,0,3.06452,0L9,0C9.59812,0,10.0853,0.485017,10.0853,1.08531C10.0853,1.6856,9.60029,2.17061,9,2.17061L3.06452,2.17061C2.57081,2.17061,2.16844,2.57298,2.16844,3.0667L2.16844,14.9355C2.16844,15.4292,2.57081,15.8316,3.06452,15.8316L14.9333,15.8316C15.427,15.8316,15.8294,15.4292,15.8294,14.9355L15.8294,9C15.8294,8.39971,16.3144,7.91469,16.9147,7.91469C17.5128,7.91469,18,8.39971,18,9L18,14.9333C18,16.6254,16.6232,18,14.9355,18Z" fill="#FF6200" fill-opacity="1" style="mix-blend-mode:passthrough"/></g><g><path d="M7.607572,13.5C7.387704,13.5,7.169553,13.3737,7.0012170000000005,13.1238C6.6662611,12.6213,6.6662611,11.8097,7.0012170000000005,11.3072L14.287790000000001,0.376843C14.62275,-0.125614,15.16383,-0.125614,15.49878,0.376843C15.83374,0.879301,15.83374,1.69096,15.49878,2.19342L8.21221,13.1238C8.04559,13.3737,7.8257200000000005,13.5,7.607572,13.5Z" fill="#FF6200" fill-opacity="1" style="mix-blend-mode:passthrough"/></g></g></svg>